<?xml version="1.0" standalone="no"?>
<!DOCTYPE svg PUBLIC "-//W3C//DTD SVG 20010904//EN"
 "http://www.w3.org/TR/2001/REC-SVG-20010904/DTD/svg10.dtd">
<svg version="1.0" xmlns="http://www.w3.org/2000/svg"
 width="343.000000pt" height="137.000000pt" viewBox="0 0 343.000000 137.000000"
 preserveAspectRatio="xMidYMid meet">

<g transform="translate(0.000000,137.000000) scale(0.100000,-0.100000)"
fill="#000000" stroke="none">
<path d="M1920 1349 c-160 -19 -304 -130 -361 -279 -31 -78 -37 -203 -14 -286
58 -216 282 -362 501 -325 38 7 95 24 127 40 l57 28 0 -59 c0 -194 -200 -314
-370 -223 -40 22 -65 45 -95 90 -33 47 -49 62 -77 69 -48 12 -94 -7 -114 -47
-20 -38 -13 -77 27 -139 90 -140 272 -222 436 -198 165 24 283 113 356 267
l32 68 0 330 0 330 -33 69 c-42 90 -87 144 -158 191 -93 62 -203 88 -314 74z
m170 -219 c127 -65 176 -213 114 -339 -91 -183 -354 -183 -447 -1 -25 48 -28
64 -25 126 3 58 9 80 33 120 32 51 112 109 164 117 45 8 122 -3 161 -23z"/>
<path d="M2895 1349 c-82 -12 -194 -69 -253 -129 -259 -263 -112 -700 255
-761 92 -15 174 -1 269 46 272 134 332 499 116 714 -106 107 -237 151 -387
130z m170 -213 c166 -70 201 -302 63 -421 -136 -116 -344 -62 -403 106 -32 90
-13 178 55 251 75 82 184 106 285 64z"/>
<path d="M360 1336 c-136 -38 -254 -143 -302 -269 -116 -303 93 -608 417 -609
90 0 151 13 212 47 l42 23 16 -25 c35 -54 118 -60 158 -12 15 19 17 47 17 253
0 245 -6 290 -52 380 -27 52 -103 132 -156 163 -100 59 -244 79 -352 49z m245
-216 c138 -85 163 -282 51 -394 -103 -103 -257 -100 -362 8 -99 102 -97 232 5
339 20 21 49 45 64 53 68 36 179 33 242 -6z"/>
<path d="M1318 1331 c-163 -52 -282 -194 -308 -368 -6 -39 -10 -155 -8 -256 3
-169 5 -188 24 -213 36 -49 95 -55 145 -15 24 19 24 22 29 253 5 229 6 234 33
285 41 79 109 123 212 138 62 8 88 25 105 64 15 38 7 75 -25 107 -21 20 -33
24 -87 23 -35 0 -89 -8 -120 -18z"/>
</g>
</svg>
