<?xml version="1.0" standalone="no"?>
<!DOCTYPE svg PUBLIC "-//W3C//DTD SVG 20010904//EN"
 "http://www.w3.org/TR/2001/REC-SVG-20010904/DTD/svg10.dtd">
<svg version="1.0" xmlns="http://www.w3.org/2000/svg"
 width="280.000000pt" height="280.000000pt" viewBox="0 0 280.000000 280.000000"
 preserveAspectRatio="xMidYMid meet">

<g transform="translate(0.000000,280.000000) scale(0.100000,-0.100000)"
fill="#000000" stroke="none">
<path d="M1150 2745 c-428 -79 -797 -353 -992 -738 -42 -85 -98 -245 -98 -284
0 -61 10 -63 340 -63 162 0 300 4 306 8 6 4 30 41 54 82 90 155 242 278 408
330 109 34 206 44 301 30 291 -41 525 -241 603 -517 28 -100 31 -275 5 -373
-44 -166 -167 -335 -310 -424 -40 -25 -115 -59 -167 -77 -85 -28 -107 -32
-210 -32 -281 -1 -524 146 -650 393 -11 22 -29 44 -39 50 -12 6 -129 10 -308
10 -323 0 -333 -2 -333 -63 0 -63 101 -312 163 -401 104 -150 215 -271 337
-367 144 -114 375 -214 590 -256 92 -18 348 -20 445 -4 474 79 870 392 1053
834 18 43 47 133 64 200 30 116 32 132 32 312 1 152 -3 205 -18 265 -70 283
-148 441 -315 639 -130 154 -375 321 -562 384 -171 58 -239 69 -434 73 -132 2
-213 -1 -265 -11z"/>
<path d="M1279 1707 c-87 -32 -155 -95 -192 -175 -32 -69 -31 -197 2 -270 30
-67 116 -145 184 -168 64 -21 196 -16 247 10 70 37 118 85 152 154 28 57 33
77 33 142 0 60 -5 86 -27 132 -31 66 -91 128 -156 160 -57 28 -186 36 -243 15z"/>
</g>
</svg>
