<?xml version="1.0" standalone="no"?>
<!DOCTYPE svg PUBLIC "-//W3C//DTD SVG 20010904//EN"
 "http://www.w3.org/TR/2001/REC-SVG-20010904/DTD/svg10.dtd">
<svg version="1.0" xmlns="http://www.w3.org/2000/svg"
 width="1537.000000pt" height="1081.000000pt" viewBox="0 0 1537.000000 1081.000000"
 preserveAspectRatio="xMidYMid meet">

<g transform="translate(0.000000,1081.000000) scale(0.100000,-0.100000)"
fill="#000000" stroke="none">
<path d="M6820 10075 l0 -725 790 0 790 0 0 725 0 725 -790 0 -790 0 0 -725z"/>
<path d="M3070 8325 l0 -725 790 0 790 0 0 725 0 725 -790 0 -790 0 0 -725z"/>
<path d="M4950 8325 l0 -725 790 0 790 0 0 725 0 725 -790 0 -790 0 0 -725z"/>
<path d="M6820 8325 l0 -725 790 0 790 0 0 725 0 725 -790 0 -790 0 0 -725z"/>
<path d="M11822 8450 c-281 -432 -398 -750 -453 -1235 -18 -151 -15 -479 5
-610 42 -278 135 -557 247 -738 l31 -50 -23 -18 c-70 -53 -376 -158 -578 -199
-259 -52 33 -50 -5677 -50 -4637 0 -5303 -2 -5307 -15 -4 -8 -13 -60 -21 -117
-87 -593 -16 -1408 184 -2096 400 -1379 1297 -2402 2550 -2910 505 -204 1035
-324 1700 -384 196 -18 1100 -17 1345 0 683 50 1245 137 1820 282 2052 519
3677 1712 4732 3475 176 294 397 726 526 1030 l64 150 229 7 c126 3 287 13
358 22 676 85 1169 379 1505 896 56 85 301 566 301 589 0 5 -87 67 -192 138
-201 135 -300 183 -478 232 -363 99 -888 126 -1280 66 -129 -20 -130 -20 -130
11 0 46 -50 252 -87 357 -131 378 -390 737 -758 1055 -89 76 -418 311 -460
328 -5 2 -74 -95 -153 -216z"/>
<path d="M1200 6570 l0 -730 790 0 790 0 0 730 0 730 -790 0 -790 0 0 -730z"/>
<path d="M3070 6570 l0 -730 790 0 790 0 0 730 0 730 -790 0 -790 0 0 -730z"/>
<path d="M4950 6570 l0 -730 790 0 790 0 0 730 0 730 -790 0 -790 0 0 -730z"/>
<path d="M6820 6570 l0 -730 790 0 790 0 0 730 0 730 -790 0 -790 0 0 -730z"/>
<path d="M8700 6570 l0 -730 790 0 790 0 0 730 0 730 -790 0 -790 0 0 -730z"/>
</g>
</svg>
