<svg width="105" height="113" viewBox="0 0 105 113" fill="none" xmlns="http://www.w3.org/2000/svg">
<path d="M103.9 49.9C103.7 48 103.4 45.8 102.8 43.4C102.2 41 101.2 38.4 99.8999 35.6C98.4999 32.9 96.7999 30 94.4999 27.3C93.5999 26.2 92.5999 25.2 91.5999 24.1C93.1999 17.8 89.6999 12.3 89.6999 12.3C83.5999 11.9 79.7999 14.2 78.3999 15.2C78.1999 15.1 77.8999 15 77.6999 14.9C76.6999 14.5 75.5999 14.1 74.4999 13.7C73.3999 13.4 72.2999 13 71.1999 12.8C70.0999 12.5 68.8999 12.3 67.6999 12.1C67.4999 12.1 67.2999 12 67.0999 12C64.4999 3.6 56.8999 0 56.8999 0C48.1999 5.6 46.4999 13.1 46.4999 13.1C46.4999 13.1 46.4999 13.3 46.3999 13.5C45.8999 13.6 45.4999 13.8 44.9999 13.9C44.3999 14.1 43.6999 14.3 43.0999 14.6C42.4999 14.9 41.7999 15.1 41.1999 15.4C39.8999 16 38.6999 16.6 37.3999 17.3C36.1999 18 34.9999 18.7 33.8999 19.5C33.6999 19.4 33.5999 19.3 33.5999 19.3C21.8999 14.8 11.4999 20.2 11.4999 20.2C10.5999 32.7 16.1999 40.5 17.2999 41.9C16.9999 42.7 16.7999 43.4 16.4999 44.2C15.5999 47 14.9999 49.9 14.5999 52.9C14.4999 53.3 14.4999 53.8 14.3999 54.2C3.5999 59.5 0.399902 70.5 0.399902 70.5C9.3999 80.9 19.9999 81.5 19.9999 81.5C21.2999 83.9 22.8999 86.2 24.5999 88.3C25.2999 89.2 26.0999 90 26.8999 90.9C23.5999 100.3 27.3999 108.2 27.3999 108.2C37.4999 108.6 44.0999 103.8 45.4999 102.7C46.4999 103 47.4999 103.3 48.4999 103.6C51.5999 104.4 54.7999 104.9 57.8999 105C58.6999 105 59.4999 105 60.2999 105H60.6999H60.9999H61.4999H61.9999C66.6999 111.8 75.0999 112.7 75.0999 112.7C80.9999 106.4 81.3999 100.3 81.3999 98.9C81.3999 98.9 81.3999 98.9 81.3999 98.8C81.3999 98.7 81.3999 98.6 81.3999 98.6C81.3999 98.5 81.3999 98.4 81.3999 98.3C82.5999 97.4 83.7999 96.5 84.9999 95.5C87.3999 93.4 89.3999 90.9 91.1999 88.3C91.3999 88.1 91.4999 87.8 91.6999 87.6C98.3999 88 103.1 83.4 103.1 83.4C102 76.4 97.9999 73 97.1999 72.4C97.1999 72.4 97.1999 72.4 97.0999 72.3L96.9999 72.2L96.8999 72.1C96.8999 71.7 96.9999 71.3 96.9999 70.8C97.0999 70 97.0999 69.3 97.0999 68.5V67.9V67.6V67.5C97.0999 67.3 97.0999 67.4 97.0999 67.3V66.8V66.2C97.0999 66 97.0999 65.8 97.0999 65.6C97.0999 65.4 97.0999 65.2 96.9999 65L96.8999 64.4L96.7999 63.8C96.6999 63 96.4999 62.3 96.3999 61.5C95.6999 58.5 94.4999 55.6 92.9999 53.1C91.3999 50.5 89.4999 48.3 87.2999 46.3C85.0999 44.4 82.6999 42.8 80.0999 41.7C77.4999 40.5 74.8999 39.8 72.1999 39.5C70.8999 39.3 69.4999 39.3 68.1999 39.3H67.6999H67.5999H67.3999H67.1999H66.6999C66.4999 39.3 66.2999 39.3 66.1999 39.3C65.4999 39.4 64.7999 39.5 64.1999 39.6C61.4999 40.1 58.9999 41.1 56.7999 42.4C54.5999 43.7 52.6999 45.4 51.0999 47.3C49.4999 49.2 48.2999 51.2 47.4999 53.4C46.6999 55.5 46.1999 57.8 46.0999 59.9C46.0999 60.4 46.0999 61 46.0999 61.5C46.0999 61.6 46.0999 61.8 46.0999 61.9V62.3C46.0999 62.6 46.0999 62.8 46.1999 63.1C46.2999 64.2 46.4999 65.2 46.7999 66.2C47.3999 68.2 48.2999 70 49.4999 71.6C50.6999 73.2 51.9999 74.4 53.4999 75.4C54.9999 76.4 56.4999 77.1 58.0999 77.6C59.6999 78.1 61.1999 78.3 62.5999 78.2C62.7999 78.2 62.9999 78.2 63.0999 78.2C63.1999 78.2 63.2999 78.2 63.3999 78.2C63.4999 78.2 63.5999 78.2 63.6999 78.2C63.8999 78.2 63.9999 78.2 64.1999 78.2H64.2999H64.3999C64.4999 78.2 64.5999 78.2 64.6999 78.2C64.8999 78.2 65.0999 78.1 65.1999 78.1C65.3999 78.1 65.4999 78 65.6999 78C65.9999 77.9 66.3999 77.8 66.6999 77.7C67.2999 77.5 67.8999 77.2 68.4999 77C69.0999 76.7 69.5999 76.4 69.9999 76.1C70.0999 76 70.2999 75.9 70.3999 75.8C70.8999 75.4 70.9999 74.7 70.5999 74.2C70.1999 73.8 69.5999 73.7 69.0999 73.9C68.9999 74 68.8999 74 68.6999 74.1C68.2999 74.3 67.7999 74.5 67.3999 74.6C66.8999 74.7 66.3999 74.9 65.8999 75C65.5999 75 65.3999 75.1 65.0999 75.1C64.9999 75.1 64.7999 75.1 64.6999 75.1C64.5999 75.1 64.3999 75.1 64.2999 75.1C64.1999 75.1 63.9999 75.1 63.8999 75.1C63.6999 75.1 63.5999 75.1 63.3999 75.1H63.2999H63.1999C63.0999 75.1 63.0999 75.1 62.9999 75.1C62.8999 75.1 62.6999 75.1 62.5999 75C61.4999 74.8 60.2999 74.5 59.1999 74C58.0999 73.5 56.9999 72.8 56.0999 71.9C55.0999 71 54.2999 70 53.5999 68.8C52.8999 67.6 52.4999 66.3 52.2999 65C52.1999 64.3 52.0999 63.6 52.1999 62.9C52.1999 62.7 52.1999 62.5 52.1999 62.3V62.2V62.1C52.1999 62 52.1999 61.9 52.1999 61.8C52.1999 61.4 52.2999 61.1 52.3999 60.7C52.8999 57.7 54.3999 54.8 56.6999 52.6C57.2999 52 57.8999 51.5 58.5999 51.1C59.2999 50.6 59.9999 50.2 60.6999 49.9C61.3999 49.6 62.1999 49.3 62.9999 49.1C63.7999 48.9 64.5999 48.7 65.3999 48.7C65.7999 48.7 66.1999 48.6 66.5999 48.6C66.6999 48.6 66.7999 48.6 66.8999 48.6H67.1999H67.3999H67.4999H67.7999C68.6999 48.7 69.5999 48.8 70.3999 49C72.0999 49.4 73.7999 50 75.3999 50.9C78.5999 52.7 81.2999 55.4 82.8999 58.7C83.6999 60.3 84.2999 62.1 84.5999 64C84.6999 64.5 84.6999 64.9 84.7999 65.4V65.7V66C84.7999 66.1 84.7999 66.2 84.7999 66.3C84.7999 66.4 84.7999 66.5 84.7999 66.6V66.9V67.2C84.7999 67.4 84.7999 67.8 84.7999 68C84.7999 68.5 84.6999 69 84.6999 69.5C84.5999 70 84.5999 70.5 84.4999 71C84.3999 71.5 84.2999 72 84.1999 72.5C83.9999 73.5 83.5999 74.4 83.2999 75.4C82.5999 77.3 81.5999 79.1 80.3999 80.7C77.9999 84 74.6999 86.7 70.9999 88.4C69.0999 89.2 67.1999 89.9 65.1999 90.2C64.1999 90.4 63.1999 90.5 62.1999 90.5H61.9999H61.7999H61.4999H60.9999H60.6999H60.5999C60.0999 90.5 59.4999 90.5 58.9999 90.4C56.7999 90.2 54.6999 89.8 52.5999 89.2C50.4999 88.6 48.4999 87.8 46.5999 86.8C42.7999 84.8 39.3999 81.9 36.6999 78.6C35.3999 76.9 34.1999 75.1 33.1999 73.2C32.1999 71.3 31.4999 69.3 30.8999 67.3C30.2999 65.3 29.9999 63.2 29.8999 61.1V60.7V60.6V60.5V60.3V60V59.9V59.8V59.6V59.1V59V58.8C29.8999 58.5 29.8999 58.3 29.8999 58C29.8999 57 29.9999 55.9 30.1999 54.8C30.2999 53.7 30.4999 52.7 30.6999 51.6C30.8999 50.5 31.1999 49.5 31.4999 48.4C32.0999 46.3 32.7999 44.3 33.6999 42.4C35.4999 38.6 37.7999 35.2 40.4999 32.5C41.1999 31.8 41.8999 31.2 42.6999 30.6C42.9999 30.3 43.6999 29.7 44.4999 29.2C45.2999 28.7 46.0999 28.2 46.9999 27.8C47.3999 27.6 47.7999 27.4 48.2999 27.2C48.4999 27.1 48.6999 27 48.9999 26.9C49.1999 26.8 49.3999 26.7 49.6999 26.6C50.5999 26.2 51.4999 25.9 52.3999 25.6C52.5999 25.5 52.8999 25.5 53.0999 25.4C53.2999 25.3 53.5999 25.3 53.7999 25.2C54.2999 25.1 54.6999 25 55.1999 24.8C55.3999 24.7 55.6999 24.7 55.8999 24.6C56.0999 24.6 56.3999 24.5 56.5999 24.5C56.7999 24.5 57.0999 24.4 57.2999 24.4L57.6999 24.3L58.0999 24.2C58.2999 24.2 58.5999 24.1 58.7999 24.1C59.0999 24.1 59.2999 24 59.5999 24C59.7999 24 60.1999 23.9 60.3999 23.9C60.5999 23.9 60.6999 23.9 60.8999 23.8H61.1999H61.3999H61.5999C61.8999 23.8 62.0999 23.8 62.3999 23.7H62.7999H62.8999H63.0999C63.2999 23.7 63.5999 23.7 63.7999 23.7C64.6999 23.7 65.5999 23.7 66.4999 23.7C68.2999 23.8 70.0999 24 71.7999 24.3C75.1999 24.9 78.4999 26 81.3999 27.5C84.2999 28.9 86.9999 30.7 89.1999 32.6C89.2999 32.7 89.4999 32.8 89.5999 33C89.6999 33.1 89.8999 33.2 89.9999 33.4C90.2999 33.6 90.4999 33.9 90.7999 34.1C91.0999 34.3 91.2999 34.6 91.5999 34.8C91.7999 35.1 92.0999 35.3 92.2999 35.6C93.2999 36.6 94.1999 37.7 94.9999 38.7C96.5999 40.8 97.8999 42.9 98.8999 44.9C98.9999 45 98.9999 45.1 99.0999 45.3C99.1999 45.4 99.1999 45.5 99.2999 45.7C99.3999 45.9 99.4999 46.2 99.6999 46.4C99.7999 46.6 99.8999 46.9 99.9999 47.1C100.1 47.3 100.2 47.6 100.3 47.8C100.7 48.7 101 49.6 101.3 50.5C101.8 51.9 102.1 53.1 102.4 54.1C102.5 54.5 102.9 54.8 103.3 54.8C103.8 54.8 104.1 54.4 104.1 53.9C104 52.7 104 51.4 103.9 49.9Z" fill="url(#paint0_linear_247_11)"/>
<defs>
<linearGradient id="paint0_linear_247_11" x1="52.2499" y1="138.111" x2="52.2499" y2="35.2585" gradientUnits="userSpaceOnUse">
<stop stop-color="#FCEE1F"/>
<stop offset="1" stop-color="#F15B2A"/>
</linearGradient>
</defs>
</svg>
