<?xml version="1.0" standalone="no"?>
<!DOCTYPE svg PUBLIC "-//W3C//DTD SVG 20010904//EN"
 "http://www.w3.org/TR/2001/REC-SVG-20010904/DTD/svg10.dtd">
<svg version="1.0" xmlns="http://www.w3.org/2000/svg"
 width="600.000000pt" height="600.000000pt" viewBox="0 0 600.000000 600.000000"
 preserveAspectRatio="xMidYMid meet">

<g transform="translate(0.000000,600.000000) scale(0.100000,-0.100000)"
fill="#ffffff40" stroke="none">
<path d="M1215 5939 c-217 -16 -363 -53 -526 -135 -313 -156 -532 -455 -603
-819 -32 -163 -36 -395 -36 -2000 0 -1592 4 -1800 35 -1970 77 -417 364 -751
762 -886 236 -79 288 -81 2278 -76 1256 3 1702 7 1769 16 412 57 732 274 908
616 84 163 121 318 138 563 13 205 13 3316 0 3512 -12 176 -30 278 -69 392
-116 343 -376 603 -719 719 -118 40 -219 57 -407 69 -195 12 -3356 11 -3530
-1z m607 -1206 c165 -77 261 -243 244 -422 -12 -134 -109 -272 -235 -334 -62
-30 -71 -32 -181 -32 -109 0 -118 2 -181 32 -257 126 -315 468 -114 669 90 91
178 125 310 121 77 -2 100 -7 157 -34z m2214 -1118 c193 -34 337 -108 475
-245 73 -73 93 -100 137 -190 124 -252 122 -231 122 -1171 l0 -779 -360 0
-360 0 0 688 c0 733 0 734 -50 837 -72 150 -265 236 -462 207 -164 -24 -285
-109 -349 -245 -57 -124 -59 -141 -59 -844 l0 -643 -355 0 -355 0 2 1178 3
1177 330 0 330 0 3 -162 c1 -90 4 -163 6 -163 2 0 35 32 73 71 224 233 549
339 869 284z m-2018 -1207 l2 -1178 -365 0 -365 0 0 1180 0 1180 363 -2 362
-3 3 -1177z"/>
</g>
</svg>
