<?xml version="1.0" standalone="no"?>
<!DOCTYPE svg PUBLIC "-//W3C//DTD SVG 20010904//EN"
 "http://www.w3.org/TR/2001/REC-SVG-20010904/DTD/svg10.dtd">
<svg version="1.0" xmlns="http://www.w3.org/2000/svg"
 width="399.000000pt" height="77.000000pt" viewBox="0 0 399.000000 77.000000"
 preserveAspectRatio="xMidYMid meet">

<g transform="translate(0.000000,77.000000) scale(0.100000,-0.100000)"
fill="#000000" stroke="none">
<path d="M2498 727 c-79 -23 -108 -62 -108 -147 0 -101 39 -133 200 -165 180
-35 210 -54 210 -135 0 -86 -51 -123 -171 -123 -55 0 -88 6 -115 19 -46 22
-84 75 -84 115 0 26 -4 29 -31 29 l-32 0 7 -47 c15 -113 125 -174 290 -160
139 12 200 70 194 184 -6 101 -41 123 -263 169 -115 23 -150 51 -150 117 0 75
58 117 160 117 96 0 157 -35 177 -102 9 -32 16 -38 38 -38 26 0 27 1 20 40
-17 91 -77 131 -210 136 -51 3 -104 -1 -132 -9z"/>
<path d="M3072 721 c-73 -25 -122 -67 -157 -136 -27 -53 -30 -68 -30 -154 0
-112 22 -175 83 -234 63 -61 122 -82 232 -81 65 0 107 5 132 16 l37 17 48 -40
c44 -36 49 -38 61 -22 18 25 16 28 -28 63 l-40 32 26 31 c75 89 91 265 34 377
-28 54 -104 117 -163 135 -68 20 -170 18 -235 -4z m245 -49 c168 -86 180 -382
19 -481 -18 -12 -59 -26 -90 -32 -114 -21 -218 24 -272 117 -36 61 -45 185
-20 261 23 69 87 129 165 154 44 14 152 4 198 -19z"/>
<path d="M3557 723 c-4 -3 -7 -138 -7 -300 l0 -293 218 0 c211 0 218 1 218 20
0 19 -7 20 -188 20 l-188 0 0 280 0 280 -23 0 c-13 0 -27 -3 -30 -7z"/>
<path d="M22 403 l3 -248 28 -3 27 -3 0 110 0 111 116 0 c161 0 205 23 220
118 8 52 -10 105 -47 137 -30 24 -34 25 -190 25 l-159 0 2 -247z m306 196 c50
-31 53 -131 5 -169 -22 -17 -40 -20 -139 -20 l-114 0 0 106 0 107 113 -5 c73
-3 120 -9 135 -19z"/>
<path d="M1230 535 c0 -54 0 -55 -30 -55 -20 0 -30 -5 -30 -15 0 -10 10 -15
30 -15 l30 0 0 -133 c0 -155 7 -171 76 -165 40 3 61 28 24 28 -12 0 -30 5 -41
10 -17 10 -19 22 -19 135 l0 125 40 0 c29 0 40 4 40 15 0 11 -11 15 -40 15
l-40 0 0 55 c0 48 -2 55 -20 55 -18 0 -20 -7 -20 -55z"/>
<path d="M524 476 c-90 -40 -119 -174 -59 -267 63 -98 251 -87 300 17 23 48
22 146 -2 186 -31 53 -66 72 -141 75 -42 2 -79 -2 -98 -11z m164 -37 c33 -21
52 -64 52 -119 0 -97 -41 -140 -132 -140 -49 0 -62 4 -90 29 -29 26 -33 35
-36 98 -4 64 -2 72 24 102 15 18 37 37 48 42 27 11 108 4 134 -12z"/>
<path d="M885 476 c-54 -23 -70 -88 -32 -130 18 -21 40 -28 117 -41 52 -9 98
-19 103 -22 17 -10 24 -48 14 -71 -12 -26 -44 -37 -109 -36 -58 1 -97 20 -104
51 -4 16 -13 23 -31 23 -21 0 -23 -4 -18 -22 18 -64 106 -98 211 -82 91 13
133 90 82 149 -19 21 -40 28 -112 41 -120 21 -132 28 -127 74 6 50 123 70 175
29 14 -11 26 -27 26 -35 0 -8 7 -17 15 -20 46 -18 35 50 -15 84 -26 17 -47 22
-99 22 -36 -1 -80 -7 -96 -14z"/>
<path d="M1431 472 c-59 -29 -76 -63 -76 -147 0 -84 17 -117 76 -148 48 -25
147 -19 188 11 17 12 33 22 37 22 9 0 -3 -82 -17 -113 -30 -66 -181 -71 -217
-6 -19 33 -52 39 -52 10 0 -82 179 -120 272 -58 49 33 57 69 57 265 1 166 0
172 -19 172 -15 0 -20 -7 -20 -27 l0 -26 -22 20 c-13 11 -33 26 -45 32 -33 17
-123 13 -162 -7z m154 -26 c18 -8 41 -26 50 -40 20 -29 23 -106 6 -148 -31
-81 -177 -88 -227 -12 -24 36 -24 122 0 158 33 51 106 69 171 42z"/>
<path d="M1860 483 c-8 -3 -25 -17 -38 -31 l-23 -27 7 28 c6 24 3 27 -20 27
l-26 0 2 -162 c3 -155 4 -163 23 -163 19 0 20 8 25 123 5 120 6 124 33 148 19
17 40 24 68 24 32 0 39 3 39 20 0 17 -6 20 -37 19 -21 0 -45 -3 -53 -6z"/>
<path d="M2044 476 c-84 -37 -119 -168 -68 -255 37 -62 129 -94 211 -72 63 17
137 112 86 111 -10 -1 -27 -15 -38 -33 -27 -43 -87 -63 -143 -47 -49 13 -92
60 -92 101 l0 29 150 0 150 0 0 27 c0 50 -38 110 -84 132 -49 24 -125 27 -172
7z m154 -36 c27 -17 62 -70 62 -95 0 -3 -58 -5 -130 -5 -143 0 -145 1 -114 61
29 57 121 76 182 39z"/>
</g>
</svg>
