<svg width="147" height="126" viewBox="0 0 147 126" fill="none" xmlns="http://www.w3.org/2000/svg">
<mask id="mask0_251_3" style="mask-type:luminance" maskUnits="userSpaceOnUse" x="0" y="0" width="147" height="126">
<path d="M146.43 0.0100098H0.0100098V125.49H146.43V0.0100098Z" fill="white"/>
</mask>
<g mask="url(#mask0_251_3)">
<path d="M140.67 96.75C132.87 100.83 92.39 117.48 83.67 122.05C74.95 126.62 70.28 126.49 63.46 123.23C56.64 119.97 13.71 102.51 5.93001 98.79C2.01001 96.95 0.0100098 95.38 0.0100098 93.91V79.1C0.0100098 79.1 56.09 66.93 65.14 63.65C74.19 60.37 77.32 60.29 85.01 63.11C92.7 65.93 138.8 74.25 146.41 77.01V91.61C146.41 93.13 144.66 94.61 140.67 96.74V96.75Z" fill="#A32422"/>
<path d="M140.67 82.0099C132.87 86.0699 92.39 102.72 83.67 107.21C74.95 111.7 70.28 111.66 63.46 108.41C56.64 105.16 13.71 87.6999 5.92998 84.0099C-1.85002 80.3199 -2.00002 77.7399 5.62998 74.7599C13.26 71.7799 56.09 55.0099 65.14 51.7099C74.19 48.4099 77.32 48.3399 85.01 51.1699C92.7 53.9999 133.01 70.0099 140.58 72.7999C148.15 75.5899 148.5 77.8799 140.67 81.9299V82.0099Z" fill="#DC382C"/>
<path d="M140.67 72.63C132.87 76.7 92.39 93.34 83.67 97.83C74.95 102.32 70.32 102.28 63.5 99.01C56.68 95.74 13.71 78.38 5.93001 74.67C2.01001 72.81 0.0100098 71.25 0.0100098 69.77V55.01C0.0100098 55.01 56.09 42.8 65.14 39.52C74.19 36.24 77.32 36.15 85.01 39.01C92.7 41.87 138.8 50.11 146.41 52.89V67.49C146.41 69.01 144.66 70.53 140.67 72.63Z" fill="#A32422"/>
<path d="M140.67 57.82C132.87 61.9 92.3901 78.54 83.6701 83.03C74.9501 87.52 70.2801 87.49 63.4601 84.23C56.6401 80.97 13.7101 63.58 5.93008 59.86C-1.84992 56.14 -1.98992 53.61 5.63008 50.63C13.2501 47.65 56.0901 30.84 65.1401 27.63C74.1901 24.42 77.3201 24.22 85.0101 27.01C92.7001 29.8 133.01 45.95 140.58 48.66C148.15 51.37 148.5 53.75 140.67 57.79V57.82Z" fill="#DC382C"/>
<path d="M140.67 47.6C132.87 51.68 92.39 68.33 83.67 72.81C74.95 77.29 70.32 77.26 63.5 74.01C56.68 70.76 13.71 53.35 5.93001 49.64C2.01001 47.8 0.0100098 46.23 0.0100098 44.75V29.94C0.0100098 29.94 56.09 17.77 65.14 14.5C74.19 11.23 77.32 11.13 85.01 13.95C92.7 16.77 138.78 25.09 146.39 27.87V42.4699C146.41 44.0099 144.66 45.51 140.67 47.6Z" fill="#A32422"/>
<path d="M140.67 32.81C132.87 36.81 92.39 53.56 83.67 58.01C74.95 62.46 70.28 62.45 63.46 59.21C56.64 55.97 13.71 38.54 5.92998 34.84C-1.85002 31.14 -2.00002 28.57 5.62998 25.59C13.26 22.61 56.09 5.80997 65.14 2.54997C74.19 -0.710027 77.32 -0.810027 85.01 2.00997C92.7 4.82997 133.01 20.86 140.58 23.64C148.15 26.42 148.5 28.73 140.67 32.78V32.81Z" fill="#DC382C"/>
</g>
<path d="M75.5101 11.78L85.1701 8.61001L82.5501 14.87L92.3801 18.55L79.7101 19.87L76.8601 26.71L72.2801 19.08L57.6301 17.76L68.5701 13.82L65.2801 7.76001L75.5101 11.78Z" fill="white"/>
<path d="M76.1199 51.71L52.4399 41.88L86.3599 36.67L76.1199 51.71Z" fill="white"/>
<path d="M43.2899 22.35C53.2899 22.35 61.4199 25.5 61.4199 29.35C61.4199 33.2 53.2699 36.35 43.2899 36.35C33.3099 36.35 25.1499 33.2 25.1499 29.35C25.1499 25.5 33.2799 22.35 43.2899 22.35Z" fill="white"/>
<path d="M107.39 20.42L127.46 28.35L107.41 36.28L107.39 20.42Z" fill="#741113"/>
<path d="M107.39 20.42L107.41 36.28L105.23 37.13L85.1699 29.2L107.39 20.42Z" fill="#AC2724"/>
</svg>
