<svg width="26" height="26" viewBox="0 0 26 26" fill="none" xmlns="http://www.w3.org/2000/svg">
<path fill-rule="evenodd" clip-rule="evenodd" d="M22.4498 0.105164H3.23072C1.57735 0.105164 0.236408 1.4443 0.234155 3.09766V22.2884C0.230958 23.0853 0.545241 23.8506 1.10755 24.4151C1.66986 24.9797 2.43388 25.2971 3.23072 25.2971H22.4498C23.2459 25.296 24.0089 24.9782 24.5703 24.4137C25.1317 23.8492 25.4455 23.0846 25.4423 22.2884V3.09766C25.44 1.44587 24.1015 0.107388 22.4498 0.105164ZM11.1057 18.25C11.1047 18.5163 10.9976 18.7712 10.8081 18.9584C10.6186 19.1456 10.3624 19.2496 10.0961 19.2475H5.8961C5.34678 19.2452 4.90264 18.7993 4.90264 18.25V5.75093C4.90264 5.2016 5.34678 4.75566 5.8961 4.75343H10.0961C10.6461 4.75565 11.0914 5.20095 11.0936 5.75093L11.1057 18.25ZM20.798 12.5113C20.798 12.778 20.6913 13.0336 20.5016 13.221C20.3119 13.4084 20.0551 13.5121 19.7884 13.5089H15.5884C15.0384 13.5066 14.5931 13.0613 14.5909 12.5113V5.75093C14.5931 5.20095 15.0384 4.75565 15.5884 4.75343H19.7884C20.3377 4.75566 20.7819 5.2016 20.7819 5.75093L20.798 12.5113Z" fill="url(#paint0_linear_247_1705)"/>
<defs>
<linearGradient id="paint0_linear_247_1705" x1="3936.49" y1="1612.39" x2="3936.49" y2="0.105164" gradientUnits="userSpaceOnUse">
<stop stop-color="#0052CC"/>
<stop offset="1" stop-color="#2684FF"/>
</linearGradient>
</defs>
</svg>
