<?xml version="1.0" standalone="no"?>
<!DOCTYPE svg PUBLIC "-//W3C//DTD SVG 20010904//EN"
 "http://www.w3.org/TR/2001/REC-SVG-20010904/DTD/svg10.dtd">
<svg version="1.0" xmlns="http://www.w3.org/2000/svg"
 width="320.000000pt" height="196.000000pt" viewBox="0 0 320.000000 196.000000"
 preserveAspectRatio="xMidYMid meet">

<g transform="translate(0.000000,196.000000) scale(0.100000,-0.100000)"
fill="#000000" stroke="none">
<path d="M1390 1945 c-280 -56 -461 -225 -566 -529 -37 -107 -31 -115 29 -44
59 70 164 146 237 172 112 40 247 30 355 -27 39 -21 110 -80 208 -175 167
-160 240 -215 348 -266 187 -88 431 -107 657 -50 229 57 399 212 494 450 20
50 39 108 43 129 l7 40 -61 -67 c-146 -159 -330 -222 -502 -172 -87 25 -136
60 -283 202 -245 235 -347 297 -554 338 -91 17 -322 17 -412 -1z"/>
<path d="M605 985 c-242 -45 -408 -168 -519 -385 -47 -91 -90 -210 -84 -234 2
-10 18 3 46 36 130 155 292 225 456 199 121 -19 180 -57 356 -227 284 -273
424 -337 735 -338 183 -1 270 16 405 81 159 76 286 222 359 413 16 41 32 92
36 113 l8 39 -84 -85 c-65 -65 -102 -93 -163 -123 -79 -38 -81 -39 -195 -39
-177 0 -211 19 -467 265 -189 182 -305 249 -493 284 -100 19 -297 20 -396 1z"/>
</g>
</svg>
