<svg width="26" height="9" viewBox="0 0 26 9" fill="none" xmlns="http://www.w3.org/2000/svg">
<path d="M2.64205 9L0.255682 0.272727H1.32955L3.15341 7.38068H3.23864L5.09659 0.272727H6.28977L8.14773 7.38068H8.23295L10.0568 0.272727H11.1307L8.74432 9H7.65341L5.72727 2.04545H5.65909L3.73295 9H2.64205ZM12.4474 9V0.272727H15.3963C16.081 0.272727 16.6406 0.396307 17.0753 0.643466C17.5128 0.887784 17.8366 1.21875 18.0469 1.63636C18.2571 2.05398 18.3622 2.51989 18.3622 3.03409C18.3622 3.5483 18.2571 4.01562 18.0469 4.43608C17.8395 4.85653 17.5185 5.19176 17.0838 5.44176C16.6491 5.68892 16.0923 5.8125 15.4134 5.8125H13.2997V4.875H15.3793C15.848 4.875 16.2244 4.79403 16.5085 4.6321C16.7926 4.47017 16.9986 4.25142 17.1264 3.97585C17.2571 3.69744 17.3224 3.38352 17.3224 3.03409C17.3224 2.68466 17.2571 2.37216 17.1264 2.09659C16.9986 1.82102 16.7912 1.60511 16.5043 1.44886C16.2173 1.28977 15.8366 1.21023 15.3622 1.21023H13.5043V9H12.4474ZM20.0646 9V0.272727H25.2976V1.21023H21.1214V4.15909H24.9055V5.09659H21.1214V9H20.0646Z" fill="white"/>
</svg>
